<svg xmlns="http://www.w3.org/2000/svg" width="70" height="70" viewBox="0 0 70 70"><g data-name="Group 146"><g data-name="Group 145"><path data-name="Path 196" d="M10.292 50.358a1.025 1.025 0 0 0-1.45 0l-3.486 3.486a1.025 1.025 0 1 0 1.45 1.45l3.486-3.486a1.025 1.025 0 0 0 0-1.45z" fill="#f83b6a"/></g></g><g data-name="Group 148"><g data-name="Group 147"><path data-name="Path 197" d="M13.683 53.75a1.025 1.025 0 0 0-1.45 0l-3.486 3.486a1.025 1.025 0 0 0 1.45 1.45l3.486-3.487a1.025 1.025 0 0 0 0-1.449z" fill="#f83b6a"/></g></g><g data-name="Group 150"><g data-name="Group 149"><path data-name="Path 198" d="M20.467 60.533a1.025 1.025 0 0 0-1.45 0l-3.486 3.486a1.025 1.025 0 0 0 1.45 1.45l3.486-3.486a1.025 1.025 0 0 0 0-1.45z" fill="#f83b6a"/></g></g><g data-name="Group 152"><g data-name="Group 151"><path data-name="Path 199" d="M17.075 57.141a1.025 1.025 0 0 0-1.45 0l-3.486 3.486a1.025 1.025 0 0 0 1.45 1.45l3.486-3.486a1.025 1.025 0 0 0 0-1.45z" fill="#f83b6a"/></g></g><g data-name="Group 154"><g data-name="Group 153"><path data-name="Path 200" d="M67.445.082L45.986 6.355a1.024 1.024 0 0 0-.437.259L31.208 20.955l-6.408.544a38.774 38.774 0 0 0-24.134 11.2 2.263 2.263 0 0 0 1.4 3.854l12.452 1.088-1.29 1.29a2.048 2.048 0 0 0 0 2.9l1.245 1.245-2.522 2.523a2.54 2.54 0 0 0 0 3.588l8.861 8.861a2.54 2.54 0 0 0 3.588 0l2.525-2.525 1.175 1.176a2.146 2.146 0 0 0 3.031 0l1.223-1.223 1.088 12.452a2.263 2.263 0 0 0 3.854 1.4 38.459 38.459 0 0 0 8.938-13.939 1.025 1.025 0 0 0-1.923-.712 36.423 36.423 0 0 1-8.461 13.207.21.21 0 0 1-.361-.131l-1.238-14.168L46.8 41.036a55.673 55.673 0 0 1-1.111 8.987 1.025 1.025 0 1 0 2 .451c.71-3.146.764-4.641 1.354-11.682l14.343-14.341a1.025 1.025 0 0 0 .259-.437l2.848-9.742 3.425-11.717A2 2 0 0 0 67.445.082zM2.247 34.511a.211.211 0 0 1-.131-.361 36.722 36.722 0 0 1 22.857-10.612l3.988-.336-12.547 12.546zM16.8 38.262l5.586 5.586-2.119 2.119-5.587-5.584zm-.469 11.637a2.613 2.613 0 0 0-.342.423L13.4 47.738a.493.493 0 0 1 0-.687l2.526-2.526 2.892 2.892zm2.369 2.269a.612.612 0 0 1-.865-.865l20.436-20.439a.612.612 0 0 1 .865.865L25.428 45.438zm4.249 4.431a.491.491 0 0 1-.687 0l-2.588-2.589a2.619 2.619 0 0 0 .423-.342l2.487-2.487 2.892 2.892zm6.735-1.347h-.007a.092.092 0 0 1-.123 0l-5.52-5.52 2.119-2.119 5.585 5.586zM61.75 23.187L33.189 51.748 27.6 46.163l13.037-13.034a2.664 2.664 0 0 0-3.766-3.766L23.837 42.399l-5.586-5.586L46.813 8.25l8.907-2.6 8.634 8.634zm3.259-11.151L57.964 4.99l9.955-2.91z" fill="#f83b6a"/></g></g><g data-name="Group 156"><g data-name="Group 155"><path data-name="Path 201" d="M52.214 17.786a6.811 6.811 0 0 0-2.018-1.4 1.025 1.025 0 0 0-.844 1.869 4.784 4.784 0 1 1-3.941 0 1.025 1.025 0 0 0-.844-1.869 6.833 6.833 0 1 0 7.647 1.4z" fill="#f83b6a"/></g></g></svg>