<svg xmlns="http://www.w3.org/2000/svg" width="47.166" height="70" viewBox="0 0 47.166 70"><g data-name="Group 158"><g data-name="Group 157"><path data-name="Path 206" d="M19.95 20.005l-.677-8.127a1.025 1.025 0 0 0-1.022-.94h-1.025V9.912a3.076 3.076 0 0 0-6.152 0v1.024h-1.025a1.025 1.025 0 0 0-1.02.923l-.82 8.2a1.025 1.025 0 0 0 1.02 1.127h9.709a1.025 1.025 0 0 0 1.025-1.025 1.047 1.047 0 0 0-.013-.156zM13.124 9.912a1.025 1.025 0 0 1 2.051 0v1.024h-2.051zm-2.763 9.224l.615-6.152h6.331l.513 6.152z" fill="#f83b6a"/></g></g><g data-name="Group 160"><g data-name="Group 159"><path data-name="Path 207" d="M47.16 9.126c0-.025-.007-.049-.011-.074v-.026a.904.904 0 0 0-.022-.086v-.011a1.038 1.038 0 0 0-.03-.084v-.01a1.078 1.078 0 0 0-.036-.077l-.006-.013a1.531 1.531 0 0 0-.041-.068l-.011-.018a.903.903 0 0 0-.046-.062l-.014-.019a.959.959 0 0 0-.068-.075l-8.2-8.2Q38.64.268 38.6.235L38.579.22c-.02-.015-.039-.03-.06-.044l-.028-.015-.066-.04-.015-.007a1.28 1.28 0 0 0-.075-.036h-.011a1.17 1.17 0 0 0-.083-.03h-.012c-.028-.008-.056-.016-.085-.021h-.026c-.024 0-.049-.008-.073-.011a.982.982 0 0 0-.1-.005H1.025A1.025 1.025 0 0 0 0 1.036v62a1.025 1.025 0 0 0 1.025 1.025h23.242a1.025 1.025 0 1 0 0-2.051H2.051V2.051h34.861v7.177a1.025 1.025 0 0 0 1.025 1.025h7.177V62h-5.808a1.025 1.025 0 0 0 0 2.051h6.834a1.025 1.025 0 0 0 1.025-1.025V9.228a1.016 1.016 0 0 0-.005-.102zm-8.2-.923V3.5l4.7 4.7z" fill="#f83b6a"/></g></g><g data-name="Group 162"><g data-name="Group 161"><path data-name="Path 208" d="M37.938 29.188H9.228a1.025 1.025 0 0 0 0 2.051h28.709a1.025 1.025 0 1 0 0-2.051z" fill="#f83b6a"/></g></g><g data-name="Group 164"><g data-name="Group 163"><path data-name="Path 209" d="M37.938 34.656H9.228a1.025 1.025 0 0 0 0 2.051h28.709a1.025 1.025 0 1 0 0-2.051z" fill="#f83b6a"/></g></g><g data-name="Group 166"><g data-name="Group 165"><path data-name="Path 210" d="M37.938 40.126H9.228a1.025 1.025 0 0 0 0 2.051h28.709a1.025 1.025 0 1 0 0-2.051z" fill="#f83b6a"/></g></g><g data-name="Group 168"><g data-name="Group 167"><path data-name="Path 211" d="M21.532 45.595h-12.3a1.025 1.025 0 0 0 0 2.051h12.3a1.025 1.025 0 0 0 0-2.051z" fill="#f83b6a"/></g></g><g data-name="Group 170"><g data-name="Group 169"><path data-name="Path 212" d="M38.964 55.508a7.178 7.178 0 1 0-11.621 5.631v7.931c0 .021 0 .029.006.043s.005.037.009.056l.011.046.013.051.016.048.017.047c.006.016.014.032.022.048s.013.029.021.043l.028.049.023.038c.011.017.024.034.036.05l.019.027a1.006 1.006 0 0 0 .073.081l.023.021a.92.92 0 0 0 .058.051l.037.028.051.036.04.024.056.03.039.019.064.026.035.013a.898.898 0 0 0 .074.021l.03.008c.028.006.056.01.084.014h.024c.034 0 .068.005.1.006h.011a1.042 1.042 0 0 0 .147-.012h.031a1 1 0 0 0 .142-.036l.025-.009a1.024 1.024 0 0 0 .142-.063 1.006 1.006 0 0 0 .135-.091l.009-.006 2.777-2.222 2.777 2.222.009.006a1.037 1.037 0 0 0 .136.091 1.011 1.011 0 0 0 .143.063l.025.009a1.025 1.025 0 0 0 .142.036h.031a1.019 1.019 0 0 0 .147.012h.011c.034 0 .068 0 .1-.006h.023c.029 0 .057-.008.085-.014l.029-.008a1.05 1.05 0 0 0 .075-.021l.035-.013.065-.026.039-.019.056-.03.04-.024.051-.036.037-.028c.02-.016.039-.034.058-.051l.023-.021a1.015 1.015 0 0 0 .073-.082l.019-.027c.006-.009.025-.033.036-.05l.023-.037a.476.476 0 0 0 .028-.049l.02-.042.022-.048a.443.443 0 0 0 .017-.047l.016-.048.013-.051.011-.046.009-.056c.003-.019 0-.029.006-.043s0-.042 0-.063v-7.867a7.168 7.168 0 0 0 2.763-5.633zm-6.522 9.943l-.014-.012-.023-.017a1.104 1.104 0 0 0-.055-.04l-.034-.021-.052-.03-.043-.021-.047-.021-.05-.018-.042-.014-.054-.014-.042-.01-.053-.008-.045-.006h-.238l-.06.01-.036.008-.06.016-.037.013-.055.02-.043.019-.046.022-.051.029-.035.021c-.019.012-.037.026-.055.04l-.023.016-.014.011-1.737 1.39v-4.567a7.16 7.16 0 0 0 4.785 0v4.566zm-.656-4.816a5.127 5.127 0 1 1 5.127-5.127 5.133 5.133 0 0 1-5.126 5.127z" fill="#f83b6a"/></g></g><g data-name="Group 172"><g data-name="Group 171"><path data-name="Path 213" d="M31.787 52.431a3.076 3.076 0 1 0 3.076 3.076 3.08 3.08 0 0 0-3.076-3.076zm0 4.1a1.025 1.025 0 1 1 1.025-1.025 1.026 1.026 0 0 1-1.025 1.025z" fill="#f83b6a"/></g></g></svg>