<svg xmlns="http://www.w3.org/2000/svg" width="70" height="70" viewBox="0 0 70 70"><g fill="#f83b6a"><path data-name="Path 202" d="M62.647 16.953a1.222 1.222 0 1 0-.866-2.087 1.235 1.235 0 0 0 .866 2.087z"/><path data-name="Path 203" d="M67.11 21.061a1.223 1.223 0 1 0-2.243.973 32.59 32.59 0 1 1-7.408-10.6 1.223 1.223 0 0 0 1.688-1.769 35 35 0 0 0-48.9 50.082A35 35 0 0 0 67.11 21.061z"/><path data-name="Path 204" d="M34.997 6.947A28.058 28.058 0 1 0 63.053 35 28.089 28.089 0 0 0 34.997 6.947zm0 53.671A25.613 25.613 0 1 1 60.608 35a25.641 25.641 0 0 1-25.611 25.613z"/><path data-name="Path 205" d="M34.997 15.887a1.223 1.223 0 0 0-1.223 1.223v16.667h-11a1.223 1.223 0 0 0 0 2.446h12.221A1.223 1.223 0 0 0 36.218 35V17.11a1.223 1.223 0 0 0-1.221-1.223z"/></g></svg>