<svg xmlns="http://www.w3.org/2000/svg" width="70" height="52.427" viewBox="0 0 70 52.427"><g data-name="credit-card(1)"><g data-name="Group 174"><g data-name="Group 173"><path data-name="Path 214" d="M66.79 16.068H59.9L56.423 2.417A3.214 3.214 0 0 0 52.523.1l-7.936 2.024a1 1 0 1 0 .494 1.939l7.933-2.029a1.211 1.211 0 0 1 1.471.873l.386 1.512L2.424 17.797l-.386-1.512a1.21 1.21 0 0 1 .873-1.471l36.074-9.2a1 1 0 0 0-.494-1.939l-36.075 9.2A3.214 3.214 0 0 0 .1 16.779L7.5 45.79a3.208 3.208 0 0 0 3.9 2.317l.474-.121v1.231a3.214 3.214 0 0 0 3.21 3.21h51.7a3.214 3.214 0 0 0 3.21-3.21V19.278a3.214 3.214 0 0 0-3.204-3.21zM11.875 45.922l-.968.247a1.211 1.211 0 0 1-1.471-.873L4.908 27.534l6.967-1.777v20.161zm0-26.644v4.419l-7.461 1.9-1.495-5.863 9.664-2.464a3.2 3.2 0 0 0-.708 2.008zm45.964-3.21h-7.951l7.466-1.9zm-2.475-9.706l1.5 5.864-15.072 3.842H17.3zM66.79 50.427h-51.7a1.211 1.211 0 0 1-1.21-1.21V19.278a1.211 1.211 0 0 1 1.21-1.21h51.7a1.211 1.211 0 0 1 1.21 1.21v29.939a1.211 1.211 0 0 1-1.21 1.21z" fill="#f83b6a"/></g></g><g data-name="Group 176"><g data-name="Group 175"><path data-name="Path 215" d="M39.832 40.691H18.038a1 1 0 0 0 0 2h21.794a1 1 0 0 0 0-2z" fill="#f83b6a"/></g></g><g data-name="Group 178"><g data-name="Group 177"><path data-name="Path 216" d="M56.5 23.103a6.547 6.547 0 0 0-3.85 1.248 6.585 6.585 0 1 0 0 10.675 6.583 6.583 0 1 0 3.85-11.922zm-6.577 6.9v.077q.007.126.019.251c0 .019 0 .039.006.058a6.491 6.491 0 0 0 1.245 3.207 4.584 4.584 0 1 1 0-7.81 6.492 6.492 0 0 0-1.245 3.207c0 .019 0 .039-.006.058q-.012.125-.019.251v.077c0 .1-.008.208-.008.312s.004.205.009.309zm6.577 4.272a4.569 4.569 0 0 1-3.215-1.321l-.051-.051-.113-.118-.03-.033c-.043-.048-.086-.1-.127-.147a4.576 4.576 0 0 1 0-5.828c.041-.05.084-.1.127-.147l.03-.033.113-.119.05-.05a4.583 4.583 0 1 1 3.215 7.848z" fill="#f83b6a"/></g></g><g data-name="Group 180"><g data-name="Group 179"><path data-name="Path 217" d="M25.166 23.753h-4.387a3.745 3.745 0 0 0-3.741 3.741v4.387a3.745 3.745 0 0 0 3.741 3.741h4.387a3.745 3.745 0 0 0 3.741-3.741v-4.387a3.745 3.745 0 0 0-3.741-3.741zm1.741 6.472h-2.134a1 1 0 1 0 0 2h2.1a1.744 1.744 0 0 1-1.706 1.4H20.78a1.743 1.743 0 0 1-1.706-1.4h2.1a1 1 0 1 0 0-2h-2.136v-.867h2.134a1 1 0 0 0 0-2h-2.127a1.742 1.742 0 0 1 1.734-1.6h4.387a1.742 1.742 0 0 1 1.734 1.6h-2.127a1 1 0 1 0 0 2h2.134z" fill="#f83b6a"/></g></g><g data-name="Group 182"><g data-name="Group 181"><path data-name="Path 218" d="M63.319 45.092H28.49a1 1 0 0 0 0 2h34.829a1 1 0 0 0 0-2z" fill="#f83b6a"/></g></g><g data-name="Group 184"><g data-name="Group 183"><path data-name="Path 219" d="M22.118 45.092h-4.08a1 1 0 0 0 0 2h4.08a1 1 0 0 0 0-2z" fill="#f83b6a"/></g></g></g></svg>