<svg xmlns="http://www.w3.org/2000/svg" width="20" height="20" viewBox="0 0 20 20"><path d="M3.43.131L.67 1.971A1.487 1.487 0 0 0 0 3.3a16.575 16.575 0 0 0 .319 2.35 19.9 19.9 0 0 0 5.286 8.738 19.887 19.887 0 0 0 8.73 5.293A14.079 14.079 0 0 0 16.7 20h.088a1.506 1.506 0 0 0 1.265-.689l1.821-2.77a.787.787 0 0 0 .1-.628.735.735 0 0 0-.38-.468l-4.369-2.252h-.018a.693.693 0 0 0-.335-.086.776.776 0 0 0-.607.3l-1.594 2.043-.351.448-.5-.268a16.789 16.789 0 0 1-4.27-3.132 16.371 16.371 0 0 1-3.174-4.354l-.27-.5.45-.351 2.023-1.577a.782.782 0 0 0 .2-.956L4.529.416A.737.737 0 0 0 3.859 0a.782.782 0 0 0-.429.131z" fill="#f83b6a"/></svg>